<svg xmlns="http://www.w3.org/2000/svg" xmlns:xlink="http://www.w3.org/1999/xlink" fill="none" version="1.1" width="228.83251953125" height="60" viewBox="0 0 228.83251953125 60"><defs><clipPath id="master_svg0_21_6241"><rect x="0" y="0" width="228.83251953125" height="60" rx="0"/></clipPath><filter id="master_svg1_21_6242" filterUnits="objectBoundingBox" color-interpolation-filters="sRGB" x="-0.08740016515558552" y="-0.26666666666666666" width="1.1748003303111711" height="1.6666666666666667"><feFlood flood-opacity="0" result="BackgroundImageFix"/><feColorMatrix in="SourceAlpha" type="matrix" values="0 0 0 0 0 0 0 0 0 0 0 0 0 0 0 0 0 0 127 0"/><feOffset dy="4" dx="0"/><feGaussianBlur stdDeviation="5"/><feColorMatrix type="matrix" values="0 0 0 0 0 0 0 0 0 0 0 0 0 0 0 0 0 0 0.30000001192092896 0"/><feBlend mode="normal" in2="BackgroundImageFix" result="effect1_dropShadow"/><feBlend mode="normal" in="SourceGraphic" in2="effect1_dropShadow" result="shape"/></filter></defs><g clip-path="url(#master_svg0_21_6241)"><g filter="url(#master_svg1_21_6242)"><path d="M62.1888,30.25Q62.1888,34.995,60.6938,39.1225Q59.1988,43.25,56.4363,46.37Q53.6738,49.49,49.8063,51.245Q45.9388,53,41.2588,53L18.3138,53L18.3138,46.5L41.2588,46.5Q45.7438,46.5,48.9938,44.29Q52.2438,42.08,53.9663,38.4075Q55.6888,34.735,55.6888,30.25Q55.6888,25.765,53.9663,22.06Q52.2438,18.355,48.9938,16.1775Q45.7438,14,41.2588,14L15.0638,14L15.0638,53L8.56377,53L8.56377,7.5L41.2588,7.5Q45.9388,7.5,49.8063,9.255Q53.6738,11.01,56.4363,14.1625Q59.1988,17.315,60.6938,21.4425Q62.1888,25.57,62.1888,30.25ZM107.039,53L69.7288,53L69.7288,17.12L107.039,17.12L107.039,23.685L76.2938,23.685L76.2938,46.435L107.039,46.435L107.039,53ZM102.879,38.18L79.3488,38.18L79.3488,31.615L102.879,31.615L102.879,38.18ZM167.944,53L159.169,53L135.964,29.6L121.534,40L121.534,53L115.034,53L115.034,7.5L121.534,7.5L121.534,32.85L157.219,7.5L166.709,7.5L140.904,26.025L167.944,53ZM178.734,53L172.299,53L172.299,17.25L178.734,17.25L178.734,53ZM207.854,53L201.354,53L201.354,23.685L184.129,23.685L184.129,17.25L225.014,17.25L225.014,23.685L207.854,23.685L207.854,53Z" fill="#FFFFFF" fill-opacity="1"/><path d="M61.634,39.4631Q63.1888,35.1706,63.1888,30.25Q63.1888,25.3945,61.634,21.1019Q60.0749,16.7975,57.1884,13.5035Q54.2836,10.1886,50.2195,8.34437Q46.155,6.5,41.2588,6.5L7.56377,6.5L7.56377,54L16.0638,54L16.0638,15L41.2588,15Q45.4397,15,48.4371,17.0083Q51.4548,19.0301,53.0595,22.4816Q54.6888,25.9861,54.6888,30.25Q54.6888,34.5121,53.0609,37.9829Q51.4548,41.4072,48.4315,43.4631Q45.436,45.5,41.2588,45.5L17.3138,45.5L17.3138,54L41.2588,54Q46.1551,54,50.2195,52.1556Q54.2812,50.3125,57.185,47.0329Q60.074,43.7701,61.634,39.4631ZM16.0638,14L41.2588,14Q45.7438,14,48.9938,16.1775Q52.2438,18.355,53.9663,22.06Q55.6888,25.765,55.6888,30.25Q55.6888,34.735,53.9663,38.4075Q52.2438,42.08,48.9938,44.29Q45.7438,46.5,41.2588,46.5L18.3138,46.5L18.3138,53L41.2588,53Q45.9388,53,49.8063,51.245Q53.6738,49.49,56.4363,46.37Q59.1988,43.25,60.6938,39.1225Q62.1888,34.995,62.1888,30.25Q62.1888,25.57,60.6938,21.4425Q59.1988,17.315,56.4363,14.1625Q53.6738,11.01,49.8063,9.255Q45.9388,7.5,41.2588,7.5L8.56377,7.5L8.56377,53L15.0638,53L15.0638,14L16.0638,14ZM158.752,54L167.944,54L168.65,52.292L142.445,26.1498L167.292,8.31235L166.709,6.5L156.9,6.5L122.534,30.913L122.534,6.5L114.034,6.5L114.034,54L122.534,54L122.534,40.5119L135.855,30.9108L158.752,54ZM135.964,29.6L159.169,53L167.944,53L166.941,52L141.621,26.7409L140.904,26.025L141.727,25.4339L165.316,8.5L166.709,7.5L157.219,7.5L122.534,32.1396L121.534,32.85L121.534,7.5L115.034,7.5L115.034,53L121.534,53L121.534,40L135.964,29.6ZM68.7288,54L108.039,54L108.039,45.435L77.2938,45.435L77.2938,24.685L108.039,24.685L108.039,16.12L68.7288,16.12L68.7288,54ZM77.2938,23.685L107.039,23.685L107.039,17.12L69.7288,17.12L69.7288,53L107.039,53L107.039,46.435L76.2938,46.435L76.2938,23.685L77.2938,23.685ZM171.299,54L179.734,54L179.734,16.25L171.299,16.25L171.299,54ZM200.354,54L208.854,54L208.854,24.685L226.014,24.685L226.014,16.25L183.129,16.25L183.129,24.685L200.354,24.685L200.354,54ZM200.354,23.685L201.354,23.685L201.354,53L207.854,53L207.854,23.685L225.014,23.685L225.014,17.25L184.129,17.25L184.129,23.685L200.354,23.685ZM177.734,53L172.299,53L172.299,17.25L178.734,17.25L178.734,53L177.734,53ZM78.3488,39.18L103.879,39.18L103.879,30.615L78.3488,30.615L78.3488,39.18ZM101.879,38.18L79.3488,38.18L79.3488,31.615L102.879,31.615L102.879,38.18L101.879,38.18Z" fill-rule="evenodd" fill="#FFFFFF" fill-opacity="1"/></g><g><rect x="171.2933349609375" y="6.50048828125" width="8.4399995803833" height="8.4399995803833" rx="0" fill="#3662EC" fill-opacity="1"/></g></g></svg>